<svg width="151" height="59" viewBox="0 0 151 59" fill="none" xmlns="http://www.w3.org/2000/svg">
<g filter="url(#filter0_d)">
<path d="M14.076 26.0485C17.196 26.0485 19.776 27.0805 21.816 29.1445C23.856 31.1845 24.876 34.0285 24.876 37.6765C24.876 40.0285 24.468 42.0925 23.652 43.8685C22.836 45.6205 21.768 46.9765 20.448 47.9365C17.88 49.8085 15.048 50.7445 11.952 50.7445C8.856 50.7445 6.288 49.7125 4.248 47.6485C2.232 45.5605 1.224 42.6925 1.224 39.0445C1.224 37.1485 1.488 35.4445 2.016 33.9325C2.568 32.3965 3.276 31.1485 4.14 30.1885C5.028 29.2285 6.048 28.4245 7.2 27.7765C9.312 26.6245 11.604 26.0485 14.076 26.0485ZM6.84 46.2085C7.464 47.2645 8.304 48.0925 9.36 48.6925C10.416 49.2685 11.628 49.5565 12.996 49.5565C14.388 49.5565 15.624 49.2085 16.704 48.5125C17.784 47.8165 18.624 46.9045 19.224 45.7765C20.448 43.5205 21.06 41.0965 21.06 38.5045C21.06 35.3125 20.424 32.7445 19.152 30.8005C17.736 28.6165 15.396 27.5245 12.132 27.5245C9.804 28.3405 8.04 29.7445 6.84 31.7365C5.64 33.7285 5.04 35.9845 5.04 38.5045C5.04 41.5765 5.64 44.1445 6.84 46.2085ZM32.8539 38.9365V50.3125H29.3259V26.4805H37.1019C39.5259 26.4805 41.5059 27.0205 43.0419 28.1005C44.6019 29.1805 45.3819 30.6085 45.3819 32.3845C45.3819 34.1365 44.7579 35.5285 43.5099 36.5605C42.2859 37.5685 40.6179 38.2645 38.5059 38.6485L48.1539 50.3125L43.9779 50.8165L35.6259 38.9365H32.8539ZM32.8539 37.8565H35.1579C39.4779 37.8565 41.6379 36.1525 41.6379 32.7445C41.6379 32.1685 41.4939 31.5205 41.2059 30.8005C40.6539 29.2885 39.4779 28.2925 37.6779 27.8125C36.0459 27.8125 34.4379 28.0165 32.8539 28.4245V37.8565ZM55.595 26.4805V50.3125H52.283V26.4805H55.595ZM77.1756 40.0525H80.6676V49.5205C78.6036 50.3365 76.1196 50.7445 73.2156 50.7445C69.6876 50.7445 66.6516 49.8085 64.1076 47.9365C62.8596 47.0005 61.8636 45.7765 61.1196 44.2645C60.3756 42.7285 60.0036 41.0365 60.0036 39.1885C60.0036 37.3405 60.2916 35.6845 60.8676 34.2205C61.4436 32.7325 62.1876 31.4965 63.0996 30.5125C64.0356 29.5285 65.1156 28.6885 66.3396 27.9925C68.6196 26.6965 71.1276 26.0485 73.8636 26.0485C74.9196 26.0485 76.0596 26.1685 77.2836 26.4085C78.5076 26.6485 79.4436 26.9005 80.0916 27.1645L79.7316 29.5765C76.4916 28.2085 73.8036 27.5245 71.6676 27.5245C69.2436 28.1485 67.3236 29.4325 65.9076 31.3765C64.5156 33.3205 63.8196 35.6965 63.8196 38.5045C63.8196 42.0085 64.7436 44.7205 66.5916 46.6405C68.4396 48.5365 70.8756 49.4845 73.8996 49.4845C75.0996 49.4845 76.1916 49.3645 77.1756 49.1245V40.0525ZM83.6803 50.3125L94.3723 25.9045H94.9123L105.604 50.3125H101.68L98.9803 43.8325H88.2883L85.6243 50.3125H83.6803ZM88.8283 42.4645H98.4043L93.6523 30.8005L88.8283 42.4645ZM121.909 44.6605L129.865 26.4805H133.537L134.869 50.3125H131.197L130.225 29.8285H130.081L121.009 50.3125H120.505L111.613 30.6565H111.469L110.497 50.3125H108.913L110.245 26.4805H113.593L121.909 44.6605ZM144.505 26.4805V50.3125H141.193V26.4805H144.505Z" fill="#F8F9FA"/>
</g>
<path d="M144.651 8.5487L146.473 5.04239C146.536 4.92128 146.466 4.78164 146.317 4.73054C146.168 4.67938 145.996 4.73612 145.934 4.85723L144.31 7.98128C144.198 7.77943 141.803 3.49493 141.691 3.29477L148.156 0.580476L146.466 3.83255C146.403 3.95365 146.473 4.0933 146.622 4.14439C146.771 4.19552 146.943 4.13877 147.006 4.0177L148.813 0.538933C148.986 0.205506 148.551 -0.121352 148.156 0.0445683L141.174 2.97572C141.114 3.00098 141.065 3.04414 141.038 3.09552L139.16 6.75503L138.394 5.98329L138.394 5.98325C138.303 5.89166 138.168 5.83917 138.023 5.83917H134.298C134.169 5.83917 134.054 5.90921 134.017 6.01055L133.019 8.79034C132.961 8.95319 133.038 9.12596 133.212 9.22031C133.384 9.31429 133.61 9.3073 133.774 9.20092L135.115 8.32949L136.762 11.605C136.793 11.6684 136.865 11.724 136.957 11.7447L140.814 12.5918C140.97 12.6259 141.131 12.551 141.173 12.4241C141.215 12.2972 141.123 12.1665 140.967 12.1322L137.856 11.4489L144.135 8.91504C144.21 9.13174 145.551 12.9693 145.615 13.153L142.293 12.4236C142.137 12.3894 141.976 12.4643 141.934 12.5912C141.892 12.7182 141.984 12.8488 142.141 12.8831L145.801 13.6871L146.331 15.2038C146.377 15.3339 146.499 15.4335 146.659 15.4704L149.976 16.2349C150.17 16.2797 150.373 16.2229 150.491 16.0902C150.61 15.9574 150.614 15.7836 150.502 15.6472L144.651 8.5487ZM137.606 11.0182L139.511 7.30747V7.30744L141.32 3.78323C141.441 3.99942 143.816 8.24739 143.936 8.46355L143.471 8.65118L137.606 11.0182ZM137.971 6.31522L138.903 7.25488C138.883 7.29456 137.083 10.8007 137.036 10.8913L134.735 6.31522H137.971ZM133.679 8.65321L134.345 6.79841L134.884 7.8701L133.679 8.65321ZM146.878 15.026C146.805 14.8172 145.187 10.1851 145.108 9.9581L149.849 15.7108L146.878 15.026Z" fill="#F8F9FA"/>
<defs>
<filter id="filter0_d" x="1.224" y="25.9045" width="147.281" height="28.912" filterUnits="userSpaceOnUse" color-interpolation-filters="sRGB">
<feFlood flood-opacity="0" result="BackgroundImageFix"/>
<feColorMatrix in="SourceAlpha" type="matrix" values="0 0 0 0 0 0 0 0 0 0 0 0 0 0 0 0 0 0 127 0"/>
<feOffset dx="2" dy="2"/>
<feGaussianBlur stdDeviation="1"/>
<feColorMatrix type="matrix" values="0 0 0 0 0 0 0 0 0 0 0 0 0 0 0 0 0 0 0.25 0"/>
<feBlend mode="normal" in2="BackgroundImageFix" result="effect1_dropShadow"/>
<feBlend mode="normal" in="SourceGraphic" in2="effect1_dropShadow" result="shape"/>
</filter>
</defs>
</svg>
