<svg width="25" height="31" viewBox="0 0 25 31" fill="none" xmlns="http://www.w3.org/2000/svg">
<path d="M13.75 3.0363C16.0706 3.0363 18.2962 4.15594 19.9372 6.1489C21.5781 8.14186 22.5 10.8449 22.5 13.6634C22.5 14.066 22.6317 14.4522 22.8661 14.7369C23.1005 15.0216 23.4185 15.1815 23.75 15.1815C24.0815 15.1815 24.3995 15.0216 24.6339 14.7369C24.8683 14.4522 25 14.066 25 13.6634C25 10.0396 23.8147 6.56429 21.7049 4.00191C19.5952 1.43953 16.7337 0 13.75 0C13.4185 0 13.1005 0.159948 12.8661 0.444656C12.6317 0.729365 12.5 1.11551 12.5 1.51815C12.5 1.92079 12.6317 2.30694 12.8661 2.59165C13.1005 2.87636 13.4185 3.0363 13.75 3.0363ZM24.6875 21.1175C24.6187 20.8738 24.5001 20.6553 24.3426 20.4827C24.1852 20.3101 23.9941 20.1889 23.7875 20.1307L16.2875 18.0508C16.0839 17.9948 15.872 18.0015 15.6711 18.0705C15.4703 18.1394 15.2868 18.2684 15.1375 18.4455C14.9625 18.6429 14.95 18.6581 14.1375 20.5406C11.4415 19.0318 9.28124 16.3973 8.05 13.1168C9.6375 12.1452 9.65 12.1452 9.8125 11.9175C9.95839 11.7362 10.0646 11.5133 10.1213 11.2694C10.1781 11.0254 10.1837 10.768 10.1375 10.5208L8.425 1.51815C8.37706 1.2672 8.27732 1.03518 8.13518 0.843958C7.99304 0.652733 7.81317 0.508584 7.6125 0.425082C7.32058 0.298453 7.01914 0.206925 6.7125 0.151815C6.39656 0.0628442 6.07417 0.0119924 5.75 0C4.225 0 2.76247 0.735759 1.68414 2.04542C0.605802 3.35508 0 5.13136 0 6.9835C0.0066149 13.1817 2.03686 19.1237 5.6455 23.5065C9.25414 27.8892 14.1466 30.355 19.25 30.363C20.0051 30.363 20.7528 30.1824 21.4504 29.8314C22.148 29.4805 22.7819 28.9661 23.3159 28.3176C23.8498 27.6691 24.2733 26.8993 24.5623 26.052C24.8513 25.2047 25 24.2966 25 23.3795C25.0004 22.9931 24.9753 22.6073 24.925 22.2257C24.8725 21.8487 24.793 21.4778 24.6875 21.1175ZM19.25 27.3267C14.8086 27.3227 10.5501 25.1781 7.40962 21.3639C4.2691 17.5497 2.50331 12.3776 2.5 6.9835C2.50329 5.93787 2.84676 4.93621 3.45554 4.19683C4.06432 3.45745 4.88906 3.0403 5.75 3.0363H6.1625L7.5 10.0805L6.825 10.5056C5.75 11.1888 4.9 11.7353 5.35 12.9195C6.08278 15.439 7.26846 17.7286 8.82092 19.6219C10.3734 21.5153 12.2536 22.9649 14.325 23.8653C15.375 24.3815 15.7875 23.4251 16.35 22.1043L16.7125 21.2693L22.5 22.8785V23.3795C22.4967 24.4252 22.1532 25.4268 21.5445 26.1662C20.9357 26.9056 20.1109 27.3227 19.25 27.3267Z" fill="#D99D5C"/>
</svg>
